<?xml version="1.0" standalone="no"?>
<!DOCTYPE svg PUBLIC "-//W3C//DTD SVG 20010904//EN"
 "http://www.w3.org/TR/2001/REC-SVG-20010904/DTD/svg10.dtd">
<svg version="1.0" xmlns="http://www.w3.org/2000/svg"
 width="536.000000pt" height="720.000000pt" viewBox="0 0 536.000000 720.000000"
 preserveAspectRatio="xMidYMid meet">

<g transform="translate(0.000000,720.000000) scale(0.100000,-0.100000)"
fill="#000000" stroke="none">
<path d="M2998 7123 c-50 -109 -76 -201 -88 -305 -18 -157 17 -375 82 -518 25
-54 30 -79 32 -150 1 -74 6 -94 34 -154 48 -102 42 -115 -107 -235 -23 -18
-40 -39 -37 -46 2 -7 -9 -32 -25 -56 -16 -24 -29 -51 -29 -60 0 -9 -13 -33
-30 -54 -31 -39 -37 -55 -20 -55 24 0 7 -40 -25 -59 -19 -11 -35 -24 -35 -29
0 -5 15 -42 34 -83 18 -41 42 -105 51 -144 l18 -70 -77 -75 c-152 -146 -220
-253 -271 -425 -79 -266 -98 -317 -134 -363 -54 -67 -173 -176 -266 -241 -188
-132 -315 -285 -430 -516 -85 -172 -109 -241 -136 -380 -11 -55 -29 -135 -41
-179 l-21 -78 -113 -84 c-140 -104 -194 -155 -171 -163 14 -5 9 -16 -28 -61
-86 -104 -137 -218 -85 -190 18 10 19 9 6 -28 -17 -48 -36 -167 -36 -224 1
-38 2 -41 14 -25 7 9 15 17 17 17 2 0 2 -38 1 -84 -4 -85 7 -126 32 -126 17 0
30 -30 18 -42 -5 -5 -57 14 -118 41 -134 60 -158 66 -178 45 -14 -13 -26 -14
-93 -4 -83 13 -233 6 -266 -11 -10 -6 -16 -17 -13 -24 3 -10 -15 -24 -58 -45
-35 -16 -71 -30 -79 -30 -8 0 -20 -6 -26 -14 -7 -8 -36 -26 -66 -41 -30 -16
-69 -40 -87 -56 l-33 -27 29 -11 28 -11 -44 -48 c-25 -27 -50 -58 -57 -70 -41
-77 -77 -443 -69 -702 7 -215 30 -258 259 -492 47 -49 90 -88 96 -88 7 0 13
13 15 30 l3 29 70 -54 70 -55 3 39 3 39 52 -55 c29 -30 89 -82 134 -115 l83
-59 512 3 c502 3 514 4 567 25 30 12 63 31 75 41 12 10 51 26 89 35 85 21 207
73 321 139 88 51 89 51 205 59 151 10 211 29 270 84 l46 43 3 81 c4 72 1 88
-22 135 -37 75 -35 79 24 74 27 -3 56 -11 64 -17 21 -17 76 -167 83 -223 4
-35 1 -57 -13 -85 -27 -54 -28 -286 -1 -326 39 -59 135 -84 367 -94 124 -5
351 10 415 28 57 16 105 70 105 118 0 92 -38 209 -96 292 -27 40 -81 73 -134
84 -73 14 -87 25 -125 96 -29 56 -33 70 -22 75 18 7 232 -22 306 -41 30 -8 60
-20 67 -27 7 -7 33 -85 59 -173 25 -88 54 -172 63 -187 9 -14 38 -43 64 -62
30 -23 59 -58 79 -97 44 -81 65 -91 214 -99 66 -4 137 -13 158 -20 31 -12 43
-12 70 -1 37 15 79 26 161 40 73 13 122 49 148 109 40 89 6 276 -61 342 -31
31 -49 39 -126 55 -92 19 -125 21 -205 10 -38 -6 -48 -3 -64 13 -28 31 -17 55
29 65 92 18 114 28 145 64 30 34 32 41 27 88 -7 73 -61 195 -110 251 -54 62
-104 84 -190 84 -60 0 -68 2 -63 18 3 9 14 132 26 272 11 140 27 327 35 415
20 221 45 613 45 710 0 143 40 252 153 418 82 120 111 176 132 255 35 137 109
321 135 337 6 4 17 -1 24 -11 13 -17 14 -17 24 2 18 35 35 154 29 211 l-6 54
22 -32 c34 -50 47 -48 47 5 0 47 -41 281 -66 379 -12 47 -12 62 -3 73 10 12
10 33 0 97 -7 45 -15 90 -18 100 -4 15 0 18 19 15 23 -3 23 -2 26 102 1 58 4
111 7 118 7 19 101 -33 239 -131 60 -42 111 -75 114 -72 8 8 -16 32 -91 89
-68 51 -95 68 -208 130 -55 29 -64 41 -73 85 l-6 33 68 -7 c37 -4 116 -23 176
-41 61 -19 117 -33 125 -31 26 6 -76 46 -184 73 -113 28 -155 43 -155 54 0 5
12 18 28 30 26 21 33 22 147 16 66 -4 132 -9 148 -12 17 -4 27 -2 27 5 0 20
-52 33 -158 38 -87 5 -102 8 -100 22 6 29 50 41 150 41 91 0 124 9 96 26 -6 4
-47 10 -90 14 -43 4 -81 10 -84 13 -4 3 19 58 50 123 31 64 56 122 56 128 0 7
-25 41 -55 76 -57 65 -67 90 -39 90 14 0 15 7 10 38 -7 47 1 58 26 35 32 -29
20 5 -47 132 -43 81 -65 134 -65 156 0 18 13 72 29 119 16 47 36 116 45 154
10 45 38 109 82 187 36 65 86 169 110 231 39 98 47 128 55 223 12 146 11 362
-1 385 -14 27 -58 33 -145 21 -86 -12 -133 -33 -260 -111 -94 -58 -364 -311
-425 -399 l-23 -34 -156 6 c-86 3 -231 1 -323 -5 -191 -12 -180 -15 -235 72
-73 113 -283 339 -395 423 -60 46 -185 89 -294 102 l-61 7 -35 -79z m170 -60
c-10 -2 -28 -2 -40 0 -13 2 -5 4 17 4 22 1 32 -1 23 -4z m2099 -85 c-2 -13 -4
-3 -4 22 0 25 2 35 4 23 2 -13 2 -33 0 -45z m-2214 7 c-3 -9 -8 -14 -10 -11
-3 3 -2 9 2 15 9 16 15 13 8 -4z m382 -45 c10 -11 16 -20 13 -20 -3 0 -13 9
-23 20 -10 11 -16 20 -13 20 3 0 13 -9 23 -20z m1675 -15 c-7 -8 -17 -15 -22
-15 -6 0 -5 7 2 15 7 8 17 15 22 15 6 0 5 -7 -2 -15z m-70 2 c0 -2 -10 -12
-22 -23 l-23 -19 19 23 c18 21 26 27 26 19z m227 -109 c-2 -24 -4 -7 -4 37 0
44 2 63 4 43 2 -21 2 -57 0 -80z m-2240 20 c-2 -18 -4 -6 -4 27 0 33 2 48 4
33 2 -15 2 -42 0 -60z m108 32 l30 -35 -28 25 c-16 14 -33 34 -39 45 -11 21
-10 20 37 -35z m375 -5 c19 -19 32 -35 29 -35 -3 0 -20 16 -39 35 -19 19 -32
35 -29 35 3 0 20 -16 39 -35z m1630 32 c0 -2 -12 -14 -27 -28 l-28 -24 24 28
c23 25 31 32 31 24z m-250 -21 c0 -2 -8 -10 -17 -17 -16 -13 -17 -12 -4 4 13
16 21 21 21 13z m-1555 -178 c37 -39 36 -39 -15 7 -30 28 -75 67 -100 88 -35
30 -31 28 15 -7 33 -25 78 -64 100 -88z m1495 129 c0 -2 -12 -14 -27 -28 l-28
-24 24 28 c23 25 31 32 31 24z m258 -11 c-2 -1 -12 -8 -22 -16 -18 -14 -19
-14 -7 8 7 12 17 20 22 16 6 -3 9 -7 7 -8z m-1497 -43 c13 -16 12 -17 -3 -4
-10 7 -18 15 -18 17 0 8 8 3 21 -13z m-450 -10 c13 -16 12 -17 -3 -4 -10 7
-18 15 -18 17 0 8 8 3 21 -13z m392 -93 c-2 -2 -27 20 -56 50 l-52 54 55 -49
c31 -28 54 -52 53 -55z m1577 97 c0 -2 -10 -12 -22 -23 l-23 -19 19 23 c18 21
26 27 26 19z m-136 -22 c-4 -8 -10 -15 -15 -15 -5 0 -8 -4 -6 -9 1 -5 -2 -10
-8 -11 -5 -1 -19 -9 -30 -18 -11 -9 -2 3 20 26 43 46 47 49 39 27z m-1811 -40
c4 3 5 2 2 -2 -3 -3 0 -12 7 -20 8 -10 8 -12 -4 -8 -8 3 -25 20 -38 38 l-23
32 25 -23 c13 -12 28 -20 31 -17z m2094 3 c-3 -7 -5 -2 -5 12 0 14 2 19 5 13
2 -7 2 -19 0 -25z m-1977 -23 c7 -8 9 -15 6 -15 -4 0 -14 7 -22 15 -9 8 -11
15 -6 15 5 0 15 -7 22 -15z m1660 2 c0 -2 -10 -12 -22 -23 l-23 -19 19 23 c18
21 26 27 26 19z m-1913 -104 c-2 -21 -4 -6 -4 32 0 39 2 55 4 38 2 -18 2 -50
0 -70z m561 72 c-3 -3 -9 2 -12 12 -6 14 -5 15 5 6 7 -7 10 -15 7 -18z m1092
22 c0 -2 -10 -12 -22 -23 l-23 -19 19 23 c18 21 26 27 26 19z m65 -17 c-3 -5
-12 -10 -18 -10 -7 0 -6 4 3 10 19 12 23 12 15 0z m335 7 c0 -2 -12 -14 -27
-28 l-28 -24 24 28 c23 25 31 32 31 24z m-1681 -51 c-3 -3 -11 5 -18 17 -13
21 -12 21 5 5 10 -10 16 -20 13 -22z m-69 -41 c42 -48 42 -48 6 -15 -21 19
-42 44 -48 55 -6 11 -9 18 -6 15 2 -3 24 -27 48 -55z m35 35 c10 -11 16 -20
13 -20 -3 0 -13 9 -23 20 -10 11 -16 20 -13 20 3 0 13 -9 23 -20z m244 -30 c0
-9 -4 -8 -9 5 -5 11 -9 27 -9 35 0 9 4 8 9 -5 5 -11 9 -27 9 -35z m1291 26 c0
-2 -8 -10 -17 -17 -16 -13 -17 -12 -4 4 13 16 21 21 21 13z m102 -79 c-23 -24
-39 -47 -35 -52 5 -4 2 -5 -4 -1 -7 4 -13 2 -13 -3 0 -6 -6 -11 -14 -11 -8 0
11 25 42 55 68 65 84 73 24 12z m-1345 -9 c-3 -7 -5 -2 -5 12 0 14 2 19 5 13
2 -7 2 -19 0 -25z m-152 12 c-3 -5 -12 -10 -18 -10 -7 0 -6 4 3 10 19 12 23
12 15 0z m-468 -22 c-3 -8 -6 -5 -6 6 -1 11 2 17 5 13 3 -3 4 -12 1 -19z m383
-13 c19 -19 32 -35 29 -35 -3 0 -20 16 -39 35 -19 19 -32 35 -29 35 3 0 20
-16 39 -35z m697 19 c-3 -3 -12 -4 -19 -1 -8 3 -5 6 6 6 11 1 17 -2 13 -5z
m200 0 c-3 -3 -12 -4 -19 -1 -8 3 -5 6 6 6 11 1 17 -2 13 -5z m-957 -26 c0 -6
-6 -5 -15 2 -8 7 -15 14 -15 16 0 2 7 1 15 -2 8 -4 15 -11 15 -16z m1067 16
c-3 -3 -12 -4 -19 -1 -8 3 -5 6 6 6 11 1 17 -2 13 -5z m403 3 c0 -2 -12 -14
-27 -28 l-28 -24 24 28 c23 25 31 32 31 24z m-303 -13 c-3 -3 -12 -4 -19 -1
-8 3 -5 6 6 6 11 1 17 -2 13 -5z m-1149 -49 c-3 -3 -9 2 -12 12 -6 14 -5 15 5
6 7 -7 10 -15 7 -18z m173 8 c13 -16 12 -17 -3 -4 -10 7 -18 15 -18 17 0 8 8
3 21 -13z m144 -9 c9 -15 12 -23 6 -20 -11 7 -35 46 -28 46 3 0 12 -12 22 -26z
m959 2 c-3 -9 -10 -13 -15 -10 -5 3 -3 11 4 19 15 16 19 13 11 -9z m-1431 -3
c-7 -2 -21 -2 -30 0 -10 3 -4 5 12 5 17 0 24 -2 18 -5z m1494 -25 c-3 -7 -5
-2 -5 12 0 14 2 19 5 13 2 -7 2 -19 0 -25z m285 9 c-12 -13 -19 -27 -15 -30 3
-4 -2 -7 -12 -7 -16 0 -14 4 10 30 16 17 31 30 34 30 2 0 -5 -10 -17 -23z
m-1622 -13 c0 -2 -9 0 -20 6 -11 6 -20 13 -20 16 0 2 9 0 20 -6 11 -6 20 -13
20 -16z m-205 -4 c3 -5 2 -10 -4 -10 -5 0 -13 5 -16 10 -3 6 -2 10 4 10 5 0
13 -4 16 -10z m1562 -35 c1 -20 -3 -33 -8 -30 -14 9 -10 66 5 65 1 0 2 -16 3
-35z m-1648 -5 c11 -24 11 -24 -3 -6 -9 11 -16 24 -16 30 0 12 5 7 19 -24z
m352 3 c13 -16 12 -17 -3 -4 -10 7 -18 15 -18 17 0 8 8 3 21 -13z m239 -28
c-24 -25 -46 -45 -49 -45 -3 0 15 20 39 45 24 25 46 45 49 45 3 0 -15 -20 -39
-45z m1292 2 c-21 -23 -21 -23 -2 -52 11 -17 20 -34 20 -40 0 -5 -11 8 -24 30
l-25 40 21 23 c12 12 24 22 26 22 3 0 -4 -10 -16 -23z m-180 6 c-6 -2 -9 -10
-6 -15 4 -7 2 -8 -5 -4 -13 9 -5 26 12 25 9 0 8 -2 -1 -6z m-1647 -44 c13 -20
0 -15 -25 9 -23 22 -23 24 -3 13 12 -6 25 -16 28 -22z m95 1 c0 -5 -5 -10 -11
-10 -5 0 -7 5 -4 10 3 6 8 10 11 10 2 0 4 -4 4 -10z m224 -6 c5 -14 4 -15 -9
-4 -17 14 -19 20 -6 20 5 0 12 -7 15 -16z m1306 -10 c0 -8 -19 -13 -24 -6 -3
5 1 9 9 9 8 0 15 -2 15 -3z m-1270 -39 c-13 -14 -27 -25 -32 -25 -9 0 42 49
51 50 3 0 -6 -11 -19 -25z m-240 2 c0 -2 -14 -16 -32 -33 l-32 -29 25 32 c20
27 39 41 39 30z m1587 -25 c-10 -10 -18 -27 -18 -38 -1 -18 -2 -18 -6 -1 -4
16 21 57 35 57 3 0 -2 -8 -11 -18z m-1720 -89 c-2 -16 -4 -3 -4 27 0 30 2 43
4 28 2 -16 2 -40 0 -55z m433 43 c0 -2 -8 -10 -17 -17 -16 -13 -17 -12 -4 4
13 16 21 21 21 13z m1363 -126 c23 -30 46 -59 52 -63 6 -6 6 -7 -2 -5 -10 3
-67 74 -126 157 -31 43 29 -27 76 -89z m-1786 18 c-3 -8 -6 -5 -6 6 -1 11 2
17 5 13 3 -3 4 -12 1 -19z m333 19 c0 -2 -12 -14 -27 -28 l-28 -24 24 28 c23
25 31 32 31 24z m-247 -136 c15 -8 25 -16 23 -18 -15 -15 -106 81 -106 110 0
6 13 -9 28 -34 16 -24 41 -50 55 -58z m117 75 c0 -2 -8 -10 -17 -17 -16 -13
-17 -12 -4 4 13 16 21 21 21 13z m70 -10 c0 -2 -8 -10 -17 -17 -16 -13 -17
-12 -4 4 13 16 21 21 21 13z m-110 -39 c0 -2 -10 -12 -22 -23 l-23 -19 19 23
c18 21 26 27 26 19z m50 -47 c-6 -11 -13 -20 -16 -20 -2 0 0 9 6 20 6 11 13
20 16 20 2 0 0 -9 -6 -20z m-180 -93 c0 -2 -15 -16 -32 -33 l-33 -29 29 33
c28 30 36 37 36 29z m-70 -60 c0 -2 -10 -12 -22 -23 l-23 -19 19 23 c18 21 26
27 26 19z m167 -64 c-3 -10 -5 -4 -5 12 0 17 2 24 5 18 2 -7 2 -21 0 -30z
m1524 -98 c-17 -32 -31 -52 -31 -45 0 14 53 111 58 105 2 -1 -10 -29 -27 -60z
m-98 48 c-7 -2 -19 -2 -25 0 -7 3 -2 5 12 5 14 0 19 -2 13 -5z m-920 -50 c-7
-2 -19 -2 -25 0 -7 3 -2 5 12 5 14 0 19 -2 13 -5z m65 0 c-10 -2 -26 -2 -35 0
-10 3 -2 5 17 5 19 0 27 -2 18 -5z m1163 -20 c13 -16 12 -17 -3 -4 -10 7 -18
15 -18 17 0 8 8 3 21 -13z m-1700 -10 c13 -16 12 -17 -3 -4 -10 7 -18 15 -18
17 0 8 8 3 21 -13z m404 -3 c10 -11 16 -20 13 -20 -3 0 -13 9 -23 20 -10 11
-16 20 -13 20 3 0 13 -9 23 -20z m296 3 c13 -16 12 -17 -3 -4 -10 7 -18 15
-18 17 0 8 8 3 21 -13z m649 -8 c0 -25 -23 -35 -35 -15 -10 16 2 40 20 40 9 0
15 -9 15 -25z m-1696 -62 c-20 -32 -50 -74 -65 -94 -16 -20 -30 -45 -30 -55
-1 -16 -2 -16 -6 -2 -2 9 18 46 46 85 28 38 51 73 51 78 0 9 30 45 37 45 2 0
-13 -26 -33 -57z m969 51 c3 -4 2 -16 -4 -26 -13 -24 -35 -9 -26 16 7 17 19
21 30 10z m854 -48 c-9 -13 -31 -34 -49 -47 -27 -19 -26 -16 10 18 23 22 42
46 42 53 0 7 3 10 6 7 4 -4 0 -17 -9 -31z m73 31 c0 -2 -12 -14 -27 -28 l-28
-24 24 28 c23 25 31 32 31 24z m-800 -37 c6 -11 8 -20 6 -20 -3 0 -10 9 -16
20 -6 11 -8 20 -6 20 3 0 10 -9 16 -20z m-683 -55 c73 -62 116 -87 78 -45 -24
27 -16 26 105 -15 57 -19 108 -35 112 -35 5 0 4 10 -3 21 -10 20 -9 21 17 15
160 -38 191 -63 234 -188 20 -59 28 -97 24 -118 -4 -16 -8 -30 -10 -30 -3 0
-22 11 -43 25 -46 31 -94 46 -111 35 -9 -6 2 -18 38 -40 49 -30 116 -105 107
-120 -2 -4 -78 -10 -167 -13 -90 -3 -214 -13 -277 -22 -62 -9 -130 -15 -150
-13 -32 3 -39 8 -60 51 -21 42 -25 69 -32 215 -5 91 -6 168 -4 171 3 2 13 -3
23 -12 26 -23 57 -23 47 1 -10 23 -19 182 -11 182 4 0 41 -29 83 -65z m-179
30 c-3 -3 -9 2 -12 12 -6 14 -5 15 5 6 7 -7 10 -15 7 -18z m22 -27 c0 -18 -2
-20 -9 -8 -6 8 -7 18 -5 22 9 14 14 9 14 -14z m305 12 c3 -6 -1 -7 -9 -4 -18
7 -21 14 -7 14 6 0 13 -4 16 -10z m1255 6 c0 -2 -8 -10 -17 -17 -16 -13 -17
-12 -4 4 13 16 21 21 21 13z m202 -23 c13 -16 35 -44 48 -63 13 -19 37 -49 53
-67 34 -36 34 -58 -2 -155 -26 -66 -57 -114 -91 -139 -30 -22 -256 -57 -271
-42 -6 6 -21 41 -34 79 -18 52 -25 90 -25 153 l0 83 38 37 c21 20 57 50 81 66
23 17 56 40 73 53 44 32 97 30 130 -5z m-931 -40 c13 -16 12 -17 -3 -4 -10 7
-18 15 -18 17 0 8 8 3 21 -13z m-894 -35 c-3 -8 -6 -5 -6 6 -1 11 2 17 5 13 3
-3 4 -12 1 -19z m1440 -20 c-3 -8 -6 -5 -6 6 -1 11 2 17 5 13 3 -3 4 -12 1
-19z m53 18 c0 -2 -8 -10 -17 -17 -16 -13 -17 -12 -4 4 13 16 21 21 21 13z
m-1741 -111 c0 -5 -8 6 -19 25 -11 19 -19 40 -19 45 0 6 8 -6 19 -25 11 -19
19 -39 19 -45z m1032 58 c13 -16 12 -17 -3 -4 -10 7 -18 15 -18 17 0 8 8 3 21
-13z m666 -5 c-3 -8 -6 -5 -6 6 -1 11 2 17 5 13 3 -3 4 -12 1 -19z m-1440 -35
c-3 -10 -5 -4 -5 12 0 17 2 24 5 18 2 -7 2 -21 0 -30z m818 -38 c9 -22 12 -35
6 -30 -5 6 -17 28 -26 50 -9 22 -12 36 -6 30 5 -5 17 -28 26 -50z m-1005 -115
c6 -11 8 -20 6 -20 -3 0 -10 9 -16 20 -6 11 -8 20 -6 20 3 0 10 -9 16 -20z
m197 -42 c-3 -7 -5 -2 -5 12 0 14 2 19 5 13 2 -7 2 -19 0 -25z m834 -19 c-5
-13 -10 -19 -10 -12 -1 15 10 45 15 40 3 -2 0 -15 -5 -28z m-901 -87 c3 -3 -4
0 -15 6 -11 6 -36 27 -55 48 -33 36 -33 36 15 -6 28 -24 52 -46 55 -48z m-124
-4 c8 -16 13 -28 10 -28 -5 0 -46 69 -46 78 0 8 15 -13 36 -50z m1016 12 c2
-22 0 -40 -4 -40 -5 0 -8 18 -8 40 0 22 2 40 4 40 2 0 6 -18 8 -40z m58 6 c0
-2 -8 -10 -17 -17 -16 -13 -17 -12 -4 4 13 16 21 21 21 13z m308 -13 c-10 -2
-26 -2 -35 0 -10 3 -2 5 17 5 19 0 27 -2 18 -5z m75 0 c-7 -2 -19 -2 -25 0 -7
3 -2 5 12 5 14 0 19 -2 13 -5z m95 0 c-16 -2 -40 -2 -55 0 -16 2 -3 4 27 4 30
0 43 -2 28 -4z m-298 -31 c13 -10 43 -49 65 -87 42 -71 46 -75 108 -100 31
-12 38 -19 35 -37 -2 -13 -15 -28 -30 -36 -41 -19 -179 -27 -208 -12 -23 12
-23 13 -5 26 17 13 14 14 -27 14 -39 0 -50 4 -66 28 -11 15 -22 36 -24 47 -3
18 2 20 50 17 33 -3 52 0 52 7 0 7 -22 11 -54 11 -35 0 -58 5 -66 15 -14 17
-4 55 16 55 16 0 19 16 4 25 -15 9 0 33 28 44 36 14 91 6 122 -17z m698 6 c-3
-7 -15 -18 -28 -25 -30 -15 -144 -28 -167 -19 -44 17 57 51 165 55 23 1 32 -3
30 -11z m-1728 -18 c0 -5 -2 -10 -4 -10 -3 0 -8 5 -11 10 -3 6 -1 10 4 10 6 0
11 -4 11 -10z m-370 -3 c0 -2 -17 -19 -37 -38 l-38 -34 34 38 c33 34 41 42 41
34z m181 -14 c13 -16 12 -17 -3 -4 -17 13 -22 21 -14 21 2 0 10 -8 17 -17z
m930 -32 c36 -29 17 -39 -111 -56 -63 -8 -146 -22 -185 -30 -103 -22 -122 -20
-139 13 l-15 27 -11 -32 c-7 -18 -15 -33 -19 -33 -5 0 -23 11 -42 25 -19 13
-44 30 -56 36 -33 17 -28 27 18 39 65 18 189 27 370 29 151 1 169 -1 190 -18z
m-900 -8 c13 -16 12 -17 -3 -4 -17 13 -22 21 -14 21 2 0 10 -8 17 -17z m1557
-8 c13 -13 -15 -20 -81 -21 -95 -2 -93 -1 -72 -24 23 -26 14 -35 -22 -23 -21
7 -29 17 -31 40 -3 26 1 32 20 37 27 5 179 -1 186 -9z m252 5 c0 -17 -37 -30
-84 -30 -49 0 -61 15 -23 30 30 12 107 12 107 0z m-1566 -65 c48 -28 82 -62
73 -71 -3 -4 -34 -17 -69 -29 -35 -13 -89 -33 -121 -46 -31 -12 -60 -20 -63
-17 -7 8 45 134 68 163 25 32 58 32 112 0z m1352 -22 c-16 -32 -70 -85 -102
-101 -16 -8 -26 -8 -39 2 -24 17 -14 31 43 60 26 13 58 33 72 45 34 28 43 26
26 -6z m114 7 c0 -5 -9 -14 -20 -20 -15 -8 -20 -8 -20 3 0 8 3 17 7 20 10 10
33 8 33 -3z m-767 -9 c29 -11 5 -25 -83 -50 -41 -12 -128 -40 -193 -63 -116
-40 -119 -40 -137 -22 -11 11 -26 36 -35 57 -15 37 -15 37 11 47 72 28 389 50
437 31z m698 -115 c-3 -55 -2 -58 18 -51 12 3 21 3 21 -1 0 -4 -34 -44 -75
-89 -76 -84 -105 -134 -105 -180 0 -38 15 -30 29 16 8 28 36 65 86 117 84 87
87 85 59 -38 -18 -82 -22 -253 -10 -437 5 -77 5 -133 0 -133 -5 0 -16 17 -26
38 l-16 37 -1 -51 c-1 -28 -7 -69 -15 -91 -7 -21 -28 -122 -46 -224 -44 -255
-61 -318 -131 -476 -113 -258 -141 -369 -159 -628 -6 -82 -13 -159 -16 -170
-3 -11 -31 -45 -62 -75 -31 -31 -70 -72 -85 -93 -32 -42 -48 -45 -84 -17 -25
20 -83 28 -83 12 0 -18 -153 -172 -170 -172 -13 0 -21 12 -29 47 -27 122 -33
223 -26 468 8 282 3 294 -46 124 -37 -129 -130 -319 -206 -420 -172 -227 -176
-232 -187 -212 -7 12 -11 110 -10 283 l0 265 28 65 c77 180 77 191 0 120 -24
-22 -49 -40 -56 -40 -7 0 -28 35 -47 78 -19 42 -55 118 -81 167 -60 113 -86
198 -95 306 -9 98 -12 106 -32 82 -13 -16 -14 -13 -8 32 10 76 69 298 109 409
19 54 33 103 30 108 -10 15 -31 -10 -55 -65 l-23 -52 -13 200 c-20 331 -31
467 -38 473 -4 4 -13 -2 -21 -12 -18 -25 -18 -22 2 45 42 139 67 163 256 233
108 40 157 45 180 19 25 -29 50 -84 44 -99 -3 -7 -36 -29 -73 -48 -87 -43
-283 -172 -283 -186 0 -17 10 -12 119 59 58 38 144 87 190 111 l84 41 31 -30
c42 -41 62 -41 41 -1 -19 36 -6 40 43 10 48 -29 42 -52 -29 -102 -76 -54 -61
-61 26 -13 36 20 72 35 79 32 8 -3 28 -43 46 -89 17 -46 38 -90 46 -98 18 -18
18 -2 0 41 -8 19 -17 57 -21 84 -10 73 -14 85 -33 85 -33 1 30 42 154 101 169
81 161 80 230 23 66 -53 146 -94 186 -94 42 0 132 37 159 66 13 15 49 43 79
64 30 21 66 50 79 64 36 38 47 28 42 -38z m-643 42 c7 -7 12 -15 12 -19 0 -5
-74 -45 -164 -90 l-164 -82 -57 42 -58 41 47 20 c44 18 246 83 291 93 40 9 81
7 93 -5z m769 -100 c-2 -13 -4 -5 -4 17 -1 22 1 32 4 23 2 -10 2 -28 0 -40z
m-353 23 c6 -9 -28 -43 -61 -60 -35 -18 -88 -13 -119 11 l-28 23 69 16 c80 19
131 23 139 10z m353 -233 c-2 -24 -4 -5 -4 42 0 47 2 66 4 43 2 -24 2 -62 0
-85z m-1880 -60 c-3 -8 -6 -5 -6 6 -1 11 2 17 5 13 3 -3 4 -12 1 -19z m1830
-20 c-3 -7 -5 -2 -5 12 0 14 2 19 5 13 2 -7 2 -19 0 -25z m40 -90 c-3 -7 -5
-2 -5 12 0 14 2 19 5 13 2 -7 2 -19 0 -25z m-1820 -10 c0 -13 -1 -17 -4 -10
-3 6 -10 9 -16 5 -7 -4 -6 1 2 10 17 21 17 21 18 -5z m1780 -30 c-3 -8 -6 -5
-6 6 -1 11 2 17 5 13 3 -3 4 -12 1 -19z m50 -20 c-3 -8 -6 -5 -6 6 -1 11 2 17
5 13 3 -3 4 -12 1 -19z m-2437 -81 c0 -2 -15 -16 -32 -33 l-33 -29 29 33 c28
30 36 37 36 29z m627 -19 c-3 -8 -6 -5 -6 6 -1 11 2 17 5 13 3 -3 4 -12 1 -19z
m-547 -52 c0 -2 -8 -10 -17 -17 -16 -13 -17 -12 -4 4 13 16 21 21 21 13z m557
-38 c-3 -7 -5 -2 -5 12 0 14 2 19 5 13 2 -7 2 -19 0 -25z m-747 9 c0 -2 -10
-12 -22 -23 l-23 -19 19 23 c18 21 26 27 26 19z m2547 -29 c-3 -7 -5 -2 -5 12
0 14 2 19 5 13 2 -7 2 -19 0 -25z m-2407 -1 c0 -2 -19 -21 -42 -42 l-43 -40
40 43 c36 39 45 47 45 39z m2470 -49 c0 -12 -6 -9 -26 13 -19 22 -19 22 4 8
12 -8 22 -17 22 -21z m-2680 19 c0 -2 -10 -12 -22 -23 l-23 -19 19 23 c18 21
26 27 26 19z m2617 -19 c-3 -8 -6 -5 -6 6 -1 11 2 17 5 13 3 -3 4 -12 1 -19z
m-40 -20 c-3 -8 -6 -5 -6 6 -1 11 2 17 5 13 3 -3 4 -12 1 -19z m60 -90 c-3 -8
-6 -5 -6 6 -1 11 2 17 5 13 3 -3 4 -12 1 -19z m-2787 9 c0 -2 -10 -12 -22 -23
l-23 -19 19 23 c18 21 26 27 26 19z m977 -29 c-3 -7 -5 -2 -5 12 0 14 2 19 5
13 2 -7 2 -19 0 -25z m1740 -40 c-3 -7 -5 -2 -5 12 0 14 2 19 5 13 2 -7 2 -19
0 -25z m-1750 0 c-3 -8 -6 -5 -6 6 -1 11 2 17 5 13 3 -3 4 -12 1 -19z m1830 0
c-3 -8 -6 -5 -6 6 -1 11 2 17 5 13 3 -3 4 -12 1 -19z m-149 -48 c-1 -17 -5
-27 -9 -23 -7 7 -2 53 6 53 2 0 3 -14 3 -30z m109 8 c-3 -8 -6 -5 -6 6 -1 11
2 17 5 13 3 -3 4 -12 1 -19z m-1820 -90 c-3 -8 -6 -5 -6 6 -1 11 2 17 5 13 3
-3 4 -12 1 -19z m-610 -35 c-3 -10 -5 -4 -5 12 0 17 2 24 5 18 2 -7 2 -21 0
-30z m2290 5 c-3 -8 -6 -5 -6 6 -1 11 2 17 5 13 3 -3 4 -12 1 -19z m-1644 -8
c-3 -12 -8 -19 -11 -16 -5 6 5 36 12 36 2 0 2 -9 -1 -20z m-576 -32 c-3 -7 -5
-2 -5 12 0 14 2 19 5 13 2 -7 2 -19 0 -25z m2284 5 c-12 -20 -14 -14 -5 12 4
9 9 14 11 11 3 -2 0 -13 -6 -23z m-1724 -25 c-3 -8 -6 -5 -6 6 -1 11 2 17 5
13 3 -3 4 -12 1 -19z m1650 -10 c-3 -8 -6 -5 -6 6 -1 11 2 17 5 13 3 -3 4 -12
1 -19z m-2270 -115 c-2 -16 -4 -3 -4 27 0 30 2 43 4 28 2 -16 2 -40 0 -55z
m600 25 c-3 -7 -5 -2 -5 12 0 14 2 19 5 13 2 -7 2 -19 0 -25z m1660 0 c-3 -7
-5 -2 -5 12 0 14 2 19 5 13 2 -7 2 -19 0 -25z m-2190 -50 c-3 -7 -5 -2 -5 12
0 14 2 19 5 13 2 -7 2 -19 0 -25z m520 -5 c-3 -10 -5 -4 -5 12 0 17 2 24 5 18
2 -7 2 -21 0 -30z m-580 -55 c-3 -8 -6 -5 -6 6 -1 11 2 17 5 13 3 -3 4 -12 1
-19z m570 0 c-3 -8 -6 -5 -6 6 -1 11 2 17 5 13 3 -3 4 -12 1 -19z m-560 -70
c-3 -7 -5 -2 -5 12 0 14 2 19 5 13 2 -7 2 -19 0 -25z m550 -20 c-2 -13 -4 -5
-4 17 -1 22 1 32 4 23 2 -10 2 -28 0 -40z m-540 -20 c-3 -8 -6 -5 -6 6 -1 11
2 17 5 13 3 -3 4 -12 1 -19z m20 -80 c-3 -8 -6 -5 -6 6 -1 11 2 17 5 13 3 -3
4 -12 1 -19z m2143 -4 c0 -8 -19 -13 -24 -6 -3 5 1 9 9 9 8 0 15 -2 15 -3z
m-2133 -36 c-3 -8 -6 -5 -6 6 -1 11 2 17 5 13 3 -3 4 -12 1 -19z m2094 -11
c-10 -9 -11 -8 -5 6 3 10 9 15 12 12 3 -3 0 -11 -7 -18z m-2084 -39 c-3 -7 -5
-2 -5 12 0 14 2 19 5 13 2 -7 2 -19 0 -25z m-810 -20 c-3 -7 -5 -2 -5 12 0 14
2 19 5 13 2 -7 2 -19 0 -25z m-10 -60 c-3 -7 -5 -2 -5 12 0 14 2 19 5 13 2 -7
2 -19 0 -25z m820 -60 c-2 -13 -4 -5 -4 17 -1 22 1 32 4 23 2 -10 2 -28 0 -40z
m-830 -85 c-2 -16 -4 -5 -4 22 0 28 2 40 4 28 2 -13 2 -35 0 -50z m920 5 c-3
-7 -5 -2 -5 12 0 14 2 19 5 13 2 -7 2 -19 0 -25z m-100 -25 c-3 -10 -5 -4 -5
12 0 17 2 24 5 18 2 -7 2 -21 0 -30z m-937 -57 c0 -2 -8 -10 -17 -17 -16 -13
-17 -12 -4 4 13 16 21 21 21 13z m947 -28 c-3 -7 -5 -2 -5 12 0 14 2 19 5 13
2 -7 2 -19 0 -25z m10 -40 c-3 -8 -6 -5 -6 6 -1 11 2 17 5 13 3 -3 4 -12 1
-19z m-1057 -2 c0 -2 -8 -10 -17 -17 -16 -13 -17 -12 -4 4 13 16 21 21 21 13z
m1817 -128 c-2 -18 -4 -6 -4 27 0 33 2 48 4 33 2 -15 2 -42 0 -60z m-1887 69
c0 -2 -12 -14 -27 -28 l-28 -24 24 28 c23 25 31 32 31 24z m1157 -49 c-3 -8
-6 -5 -6 6 -1 11 2 17 5 13 3 -3 4 -12 1 -19z m-1200 -14 c-3 -3 -12 -4 -19
-1 -8 3 -5 6 6 6 11 1 17 -2 13 -5z m23 -38 c0 -2 -8 -10 -17 -17 -16 -13 -17
-12 -4 4 13 16 21 21 21 13z m1207 -58 c-3 -8 -6 -5 -6 6 -1 11 2 17 5 13 3
-3 4 -12 1 -19z m-1277 -11 c0 -2 -10 -12 -22 -23 l-23 -19 19 23 c18 21 26
27 26 19z m1967 -194 c-2 -21 -4 -6 -4 32 0 39 2 55 4 38 2 -18 2 -50 0 -70z
m-650 65 c-3 -8 -6 -5 -6 6 -1 11 2 17 5 13 3 -3 4 -12 1 -19z m1110 -35 c-3
-10 -5 -4 -5 12 0 17 2 24 5 18 2 -7 2 -21 0 -30z m-952 -13 c10 -11 16 -20
13 -20 -3 0 -13 9 -23 20 -10 11 -16 20 -13 20 3 0 13 -9 23 -20z m-126 -50
c0 -9 -4 -8 -9 5 -5 11 -9 27 -9 35 0 9 4 8 9 -5 5 -11 9 -27 9 -35z m1088
-12 c-3 -7 -5 -2 -5 12 0 14 2 19 5 13 2 -7 2 -19 0 -25z m-2490 -20 c-3 -7
-5 -2 -5 12 0 14 2 19 5 13 2 -7 2 -19 0 -25z m1422 -38 c0 -9 -4 -8 -9 5 -5
11 -9 27 -9 35 0 9 4 8 9 -5 5 -11 9 -27 9 -35z m330 47 c-2 -1 -13 -9 -24
-17 -19 -14 -19 -14 -6 3 7 9 18 17 24 17 6 0 8 -1 6 -3z m651 -10 c0 -2 -10
-12 -22 -23 l-23 -19 19 23 c18 21 26 27 26 19z m-1735 -47 c9 -16 13 -30 11
-30 -3 0 -12 14 -21 30 -9 17 -13 30 -11 30 3 0 12 -13 21 -30z m1039 5 c-7
-17 -30 -20 -39 -5 -3 5 0 7 8 4 8 -3 18 -1 22 5 9 16 15 13 9 -4z m176 0 c-7
-8 -17 -15 -23 -15 -6 0 -2 7 9 15 25 19 30 19 14 0z m130 -17 c0 -12 -6 -9
-26 13 -19 22 -19 22 4 8 12 -8 22 -17 22 -21z m487 -15 c-3 -10 -5 -4 -5 12
0 17 2 24 5 18 2 -7 2 -21 0 -30z m-2510 -15 c-3 -7 -5 -2 -5 12 0 14 2 19 5
13 2 -7 2 -19 0 -25z m1452 -18 c0 -9 -4 -8 -9 5 -5 11 -9 27 -9 35 0 9 4 8 9
-5 5 -11 9 -27 9 -35z m901 36 c0 -2 -8 -10 -17 -17 -16 -13 -17 -12 -4 4 13
16 21 21 21 13z m-2323 -58 c-3 -8 -6 -5 -6 6 -1 11 2 17 5 13 3 -3 4 -12 1
-19z m2490 -50 c-2 -13 -4 -5 -4 17 -1 22 1 32 4 23 2 -10 2 -28 0 -40z
m-1050 0 c-3 -8 -6 -5 -6 6 -1 11 2 17 5 13 3 -3 4 -12 1 -19z m-1430 -40 c-3
-8 -6 -5 -6 6 -1 11 2 17 5 13 3 -3 4 -12 1 -19z m763 -63 c0 -5 -5 -3 -10 5
-5 8 -10 20 -10 25 0 6 5 3 10 -5 5 -8 10 -19 10 -25z m709 -25 c0 -9 -4 -8
-9 5 -5 11 -9 27 -9 35 0 9 4 8 9 -5 5 -11 9 -27 9 -35z m1018 3 c-3 -10 -5
-2 -5 17 0 19 2 27 5 18 2 -10 2 -26 0 -35z m-2956 -51 c-7 -2 -18 1 -23 6 -8
8 -4 9 13 5 13 -4 18 -8 10 -11z m1956 -24 c-3 -8 -6 -5 -6 6 -1 11 2 17 5 13
3 -3 4 -12 1 -19z m-1916 -15 c13 -16 12 -17 -3 -4 -10 7 -18 15 -18 17 0 8 8
3 21 -13z m1236 -15 c-3 -8 -6 -5 -6 6 -1 11 2 17 5 13 3 -3 4 -12 1 -19z
m716 -98 c6 -33 6 -33 -7 5 -7 22 -16 56 -19 75 -6 33 -6 33 7 -5 7 -22 16
-56 19 -75z m-2236 94 c-3 -3 -12 -4 -19 -1 -8 3 -5 6 6 6 11 1 17 -2 13 -5z
m161 -1 c-10 -2 -28 -2 -40 0 -13 2 -5 4 17 4 22 1 32 -1 23 -4z m3049 -45
c-2 -13 -4 -5 -4 17 -1 22 1 32 4 23 2 -10 2 -28 0 -40z m-2980 36 c-3 -3 -12
-4 -19 -1 -8 3 -5 6 6 6 11 1 17 -2 13 -5z m239 -25 c3 -6 -5 -3 -20 6 -14 10
-26 19 -26 22 0 7 39 -17 46 -28z m-179 15 c-3 -3 -12 -4 -19 -1 -8 3 -5 6 6
6 11 1 17 -2 13 -5z m1240 -36 c-3 -7 -5 -2 -5 12 0 14 2 19 5 13 2 -7 2 -19
0 -25z m-1550 16 c-3 -3 -12 -4 -19 -1 -8 3 -5 6 6 6 11 1 17 -2 13 -5z m2870
-31 c-3 -10 -5 -4 -5 12 0 17 2 24 5 18 2 -7 2 -21 0 -30z m-2342 7 c10 -11
16 -20 13 -20 -3 0 -13 9 -23 20 -10 11 -16 20 -13 20 3 0 13 -9 23 -20z
m2712 -112 c-2 -13 -4 -5 -4 17 -1 22 1 32 4 23 2 -10 2 -28 0 -40z m-970 0
c-3 -7 -5 -2 -5 12 0 14 2 19 5 13 2 -7 2 -19 0 -25z m-2279 15 c-10 -2 -28
-2 -40 0 -13 2 -5 4 17 4 22 1 32 -1 23 -4z m85 0 c-13 -2 -33 -2 -45 0 -13 2
-3 4 22 4 25 0 35 -2 23 -4z m2804 -25 c-3 -7 -5 -2 -5 12 0 14 2 19 5 13 2
-7 2 -19 0 -25z m-3077 19 c0 -2 -10 -12 -22 -23 l-23 -19 19 23 c18 21 26 27
26 19z m737 -23 c-3 -3 -12 -4 -19 -1 -8 3 -5 6 6 6 11 1 17 -2 13 -5z m-157
-81 l75 -78 -77 75 c-72 69 -83 80 -75 80 1 0 36 -35 77 -77z m1577 71 c-3 -3
-12 -4 -19 -1 -8 3 -5 6 6 6 11 1 17 -2 13 -5z m320 -16 c-3 -8 -6 -5 -6 6 -1
11 2 17 5 13 3 -3 4 -12 1 -19z m-2477 -2 c0 -2 -8 -10 -17 -17 -16 -13 -17
-12 -4 4 13 16 21 21 21 13z m-60 -9 c0 -2 -10 -12 -22 -23 l-23 -19 19 23
c18 21 26 27 26 19z m2493 -4 c-7 -2 -19 -2 -25 0 -7 3 -2 5 12 5 14 0 19 -2
13 -5z m654 -25 c-3 -7 -5 -2 -5 12 0 14 2 19 5 13 2 -7 2 -19 0 -25z m-2384
15 c-7 -2 -19 -2 -25 0 -7 3 -2 5 12 5 14 0 19 -2 13 -5z m1650 0 c-7 -2 -19
-2 -25 0 -7 3 -2 5 12 5 14 0 19 -2 13 -5z m1094 -40 c-3 -10 -5 -2 -5 17 0
19 2 27 5 18 2 -10 2 -26 0 -35z m-1180 31 c-3 -3 -12 -4 -19 -1 -8 3 -5 6 6
6 11 1 17 -2 13 -5z m-70 -10 c-3 -3 -12 -4 -19 -1 -8 3 -5 6 6 6 11 1 17 -2
13 -5z m-2207 -8 c0 -3 -4 -8 -10 -11 -5 -3 -10 -1 -10 4 0 6 5 11 10 11 6 0
10 -2 10 -4z m950 -6 c0 -5 -2 -10 -4 -10 -3 0 -8 5 -11 10 -3 6 -1 10 4 10 6
0 11 -4 11 -10z m1558 -102 c-5 -96 -41 -168 -131 -265 -38 -40 -64 -73 -59
-73 13 0 98 68 136 109 50 53 54 40 19 -74 -22 -72 -83 -172 -153 -249 -34
-38 -60 -70 -57 -72 6 -6 71 17 82 30 13 15 95 47 95 36 0 -40 -267 -313 -338
-346 -23 -10 -42 -25 -42 -31 0 -17 3 -17 85 7 38 11 74 20 79 20 4 0 -20 -22
-55 -50 -60 -46 -213 -135 -287 -166 -32 -13 -34 -13 -21 3 7 10 34 41 59 68
52 57 85 103 78 111 -3 2 -25 -4 -49 -14 -61 -26 -179 -65 -184 -60 -2 2 19
33 47 68 54 70 118 191 118 225 -1 13 -12 1 -33 -36 -45 -79 -51 -85 -123
-119 -95 -45 -104 -39 -44 27 77 85 106 156 48 120 -30 -19 -75 -29 -82 -19
-3 5 8 24 23 43 34 41 61 92 61 115 0 11 -11 2 -29 -23 -55 -76 -163 -140
-223 -131 -19 2 -24 10 -26 40 -4 51 18 90 104 180 65 68 86 98 69 98 -3 0
-25 -16 -50 -35 -51 -38 -106 -57 -171 -57 -51 0 -154 20 -154 30 0 19 110
116 165 146 29 16 29 16 -45 11 -41 -3 -90 -8 -108 -11 -32 -5 -33 -4 -21 18
49 95 142 194 217 232 l33 17 -17 -32 c-16 -33 -35 -89 -30 -89 2 0 21 16 42
36 22 19 66 54 99 76 l60 40 5 -31 5 -31 67 49 c79 57 214 129 224 119 4 -4
-5 -34 -20 -67 -16 -35 -29 -88 -33 -127 -8 -84 7 -80 37 11 24 73 46 95 124
124 53 20 273 59 395 70 10 1 12 -15 9 -71z m-2638 32 c0 -5 -5 -10 -11 -10
-5 0 -7 5 -4 10 3 6 8 10 11 10 2 0 4 -4 4 -10z m110 6 c0 -2 -8 -10 -17 -17
-16 -13 -17 -12 -4 4 13 16 21 21 21 13z m659 -69 c-2 -3 -15 10 -28 27 l-24
31 28 -27 c16 -15 27 -29 24 -31z m-689 29 c0 -2 -8 -10 -17 -17 -16 -13 -17
-12 -4 4 13 16 21 21 21 13z m1560 -1 c0 -2 -10 -9 -22 -15 -22 -11 -22 -10
-4 4 21 17 26 19 26 11z m-776 -64 c-3 -3 -15 6 -27 18 l-22 24 27 -19 c14
-10 24 -21 22 -23z m59 -8 c-7 -2 -19 -2 -25 0 -7 3 -2 5 12 5 14 0 19 -2 13
-5z m383 -25 l29 -33 -32 29 c-31 28 -38 36 -30 36 2 0 16 -15 33 -32z m-228
15 c-21 -2 -55 -2 -75 0 -21 2 -4 4 37 4 41 0 58 -2 38 -4z m2189 -25 c-3 -8
-6 -5 -6 6 -1 11 2 17 5 13 3 -3 4 -12 1 -19z m349 -66 l7 -62 -55 0 c-30 0
-57 3 -61 6 -6 7 34 75 67 112 26 30 35 19 42 -56z m-206 -17 c-41 -41 -77
-75 -79 -75 -3 0 28 34 69 75 41 41 77 75 79 75 3 0 -28 -34 -69 -75z m-2337
58 c-7 -2 -19 -2 -25 0 -7 3 -2 5 12 5 14 0 19 -2 13 -5z m50 0 c-7 -2 -19 -2
-25 0 -7 3 -2 5 12 5 14 0 19 -2 13 -5z m53 -19 c18 -14 18 -14 -6 -3 -31 14
-36 19 -24 19 6 0 19 -7 30 -16z m2101 -16 c-3 -8 -6 -5 -6 6 -1 11 2 17 5 13
3 -3 4 -12 1 -19z m10 -50 c-3 -8 -6 -5 -6 6 -1 11 2 17 5 13 3 -3 4 -12 1
-19z m-1897 -18 c0 -5 -7 -7 -15 -4 -8 4 -15 8 -15 10 0 2 7 4 15 4 8 0 15 -4
15 -10z m1322 -22 c-8 -8 -9 -4 -5 13 4 13 8 18 11 10 2 -7 -1 -18 -6 -23z
m-2765 -60 c-3 -8 -6 -5 -6 6 -1 11 2 17 5 13 3 -3 4 -12 1 -19z m1413 19 c0
-2 -15 -16 -32 -33 l-33 -29 29 33 c28 30 36 37 36 29z m56 -96 c-3 -5 -15 -7
-26 -4 -28 7 -25 13 6 13 14 0 23 -4 20 -9z m-1479 -53 c-2 -13 -4 -5 -4 17
-1 22 1 32 4 23 2 -10 2 -28 0 -40z m1371 45 c-10 -2 -28 -2 -40 0 -13 2 -5 4
17 4 22 1 32 -1 23 -4z m1459 -45 c-3 -8 -6 -5 -6 6 -1 11 2 17 5 13 3 -3 4
-12 1 -19z m-100 6 c-3 -3 -12 -4 -19 -1 -8 3 -5 6 6 6 11 1 17 -2 13 -5z
m113 -74 c0 -16 -4 -30 -8 -30 -5 0 -7 14 -4 30 2 17 6 30 8 30 2 0 4 -13 4
-30z m-2833 -42 c-3 -8 -6 -5 -6 6 -1 11 2 17 5 13 3 -3 4 -12 1 -19z m1490
-14 c-3 -3 -12 -4 -19 -1 -8 3 -5 6 6 6 11 1 17 -2 13 -5z m56 -11 c-7 -2 -19
-2 -25 0 -7 3 -2 5 12 5 14 0 19 -2 13 -5z m-1366 -25 c-3 -8 -6 -5 -6 6 -1
11 2 17 5 13 3 -3 4 -12 1 -19z m1437 13 c3 -4 -6 -6 -19 -3 -14 2 -25 6 -25
8 0 8 39 4 44 -5z m-1476 -217 c-3 -70 -4 -76 -18 -59 -9 11 -10 16 -2 11 9
-6 12 23 14 131 1 78 3 107 5 66 2 -40 3 -107 1 -149z m49 74 c-2 -13 -4 -5
-4 17 -1 22 1 32 4 23 2 -10 2 -28 0 -40z m130 -5 c-3 -10 -5 -4 -5 12 0 17 2
24 5 18 2 -7 2 -21 0 -30z m1270 15 c-3 -8 -6 -5 -6 6 -1 11 2 17 5 13 3 -3 4
-12 1 -19z m253 -97 c0 -6 -5 -13 -12 -17 -7 -4 -8 -3 -4 4 5 8 -19 12 -76 15
l-83 3 88 2 c49 1 87 -2 87 -7z m-1573 -43 c-3 -8 -6 -5 -6 6 -1 11 2 17 5 13
3 -3 4 -12 1 -19z m10 -60 c-3 -8 -6 -5 -6 6 -1 11 2 17 5 13 3 -3 4 -12 1
-19z m-17 -8 c6 -11 8 -20 6 -20 -3 0 -10 9 -16 20 -6 11 -8 20 -6 20 3 0 10
-9 16 -20z m42 -65 c7 -14 4 -13 -11 5 -10 13 -17 29 -13 34 3 6 8 4 10 -4 3
-8 9 -24 14 -35z m1555 19 c-7 -7 -179 -6 -186 1 -2 3 40 5 94 5 54 0 96 -3
92 -6z m-1326 -31 c13 -16 12 -17 -3 -4 -17 13 -22 21 -14 21 2 0 10 -8 17
-17z m-44 -15 c-3 -8 -6 -5 -6 6 -1 11 2 17 5 13 3 -3 4 -12 1 -19z m22 -61
c-2 -3 -15 10 -28 27 l-24 31 28 -27 c16 -15 27 -29 24 -31z m201 27 c0 -2 -9
0 -20 6 -11 6 -20 13 -20 16 0 2 9 0 20 -6 11 -6 20 -13 20 -16z m-146 -10 c3
-8 2 -12 -4 -9 -6 3 -10 10 -10 16 0 14 7 11 14 -7z m1406 -8 c0 -2 -10 -11
-22 -22 -18 -15 -20 -15 -9 -2 12 16 4 18 -126 21 l-138 3 148 1 c81 1 147 0
147 -1z m-1370 -41 c13 -14 21 -25 18 -25 -2 0 -15 11 -28 25 -13 14 -21 25
-18 25 2 0 15 -11 28 -25z m907 -11 c-3 -3 -12 -4 -19 -1 -8 3 -5 6 6 6 11 1
17 -2 13 -5z m76 -11 c-7 -2 -21 -2 -30 0 -10 3 -4 5 12 5 17 0 24 -2 18 -5z
m274 1 c-3 -3 -12 -4 -19 -1 -8 3 -5 6 6 6 11 1 17 -2 13 -5z m-967 -30 c0 -2
-9 0 -20 6 -11 6 -20 13 -20 16 0 2 9 0 20 -6 11 -6 20 -13 20 -16z m858 19
c-21 -2 -55 -2 -75 0 -21 2 -4 4 37 4 41 0 58 -2 38 -4z m-1083 -23 c10 -11
16 -20 13 -20 -3 0 -13 9 -23 20 -10 11 -16 20 -13 20 3 0 13 -9 23 -20z m106
3 c13 -16 12 -17 -3 -4 -10 7 -18 15 -18 17 0 8 8 3 21 -13z m402 -71 l27 -28
-28 -1 c-15 0 -19 1 -9 4 18 4 17 6 -4 29 -12 13 -20 24 -18 24 3 0 17 -13 32
-28z m537 8 c-20 -13 -33 -13 -25 0 3 6 14 10 23 10 15 0 15 -2 2 -10z m-393
-6 c-3 -3 -12 -4 -19 -1 -8 3 -5 6 6 6 11 1 17 -2 13 -5z m246 -11 c-29 -2
-77 -2 -105 0 -29 2 -6 3 52 3 58 0 81 -1 53 -3z m-606 -49 c-3 -3 -12 -4 -19
-1 -8 3 -5 6 6 6 11 1 17 -2 13 -5z"/>
</g>
</svg>
